# xmcd CD database file generated by Grip 3.3.1
# 
# Track frame offsets:
#       150
#       17486
#       36844
#       49193
#       69796
#       90828
#       103440
#       127660
#       141870
#       159414
#       166246
#       172000
#       214579
#       228701
#       251491
#       262690
#       267165
#       269621
#       274475
#       289658
#       296162
#       302755
#       309661
#       312038
#       316143
#       330255
#       334285
#       344937
# 
# Disc length: 4672 seconds
# 
# Revision: 1
# Processed by: cddbd v1.5.2PL0 Copyright (c) Steve Scherf et al.
# Submitted via: Grip 3.3.1
# 
DISCID=9d123e1c
DTITLE=Alexander Scriabin - Scriabin - The Complete Works [CD05)
DYEAR=2015
DGENRE=Classical
TTITLE0=9 Mazurkas, op.25 - I. Allegro, in F minor
TTITLE1=9 Mazurkas, op.25 - II. Allegretto, in C major
TTITLE2=9 Mazurkas, op.25 - III. Lento, in E minor
TTITLE3=9 Mazurkas, op.25 - IV. Vivo, in E major
TTITLE4=9 Mazurkas, op.25 - V. Agitato, in C sharp major
TTITLE5=9 Mazurkas, op.25 - VI. Allegretto, in F sharp major
TTITLE6=9 Mazurkas, op.25 - VII. Moderato, in F sharp minor
TTITLE7=9 Mazurkas, op.25 - VIII. Allegretto, in B major
TTITLE8=9 Mazurkas, op.25 - IX. Mesto, in E flat minor
TTITLE9=2 Préludes, op.27 - I. Patetico, in G minor
TTITLE10=2 Préludes, op.27 - II. Andante, in B major
TTITLE11=Fantasie in B minor, op.28 - Moderato - Più vivo - Tempo I - Più
TTITLE11=vivo - Tempo I
TTITLE12=Piano Sonata No.4 in F sharp major, op.30 - I. Andante -
TTITLE13=Piano Sonata No.4 in F sharp major, op.30 - II. Prestissimo volan
TTITLE13=do
TTITLE14=4 Préludes, op.31 - I. Andante, in D flat
TTITLE15=4 Préludes, op.31 - II. Con stravaganza, in F sharp minor
TTITLE16=4 Préludes, op.31 - III. Presto, in E flat minor
TTITLE17=4 Préludes, op.31 - IV. Lento, in C major
TTITLE18=2 Poèmes, op.32 - I. Andante cantabile, in F sharp minor
TTITLE19=2 Poèmes, op.32 - II. Allegro. Con eleganza. Con fiducia, in D m
TTITLE19=ajor
TTITLE20=4 Préludes, op.33 - I. J =96, in E major
TTITLE21=4 Préludes, op.33 - II. Vagamente, in F sharp minor
TTITLE22=4 Préludes, op.33 - III. J =88, in C major
TTITLE23=4 Préludes, op.33 - IV. Ardito, bellicoso, in A flat major
TTITLE24=Poème tragique, op.34 - Festivamente. Fastoso - Irato, fiero - T
TTITLE24=empo I, in B flat major
TTITLE25=3 Préludes, op.35 - I. Allegro, in D flat major
TTITLE26=3 Préludes, op.35 - II. Elevato, in B flat major
TTITLE27=3 Préludes, op.35 - III. Scherzoso, in C major
EXTD=
EXTT0=
EXTT1=
EXTT2=
EXTT3=
EXTT4=
EXTT5=
EXTT6=
EXTT7=
EXTT8=
EXTT9=
EXTT10=
EXTT11=
EXTT12=
EXTT13=
EXTT14=
EXTT15=
EXTT16=
EXTT17=
EXTT18=
EXTT19=
EXTT20=
EXTT21=
EXTT22=
EXTT23=
EXTT24=
EXTT25=
EXTT26=
EXTT27=
PLAYORDER=
